<svg
  className="absolute left-0 top-0 h-full w-[2px] hidden lg:block"
  preserveAspectRatio="none"
  xmlns="http://www.w3.org/2000/svg"
>
  <rect width="2" height="1%" fill="white" opacity="0" />
  <rect y="1%" width="2" height="1%" fill="white" opacity="0.02" />
  <rect y="2%" width="2" height="1%" fill="white" opacity="0.04" />
  <rect y="3%" width="2" height="1%" fill="white" opacity="0.06" />
  <rect y="4%" width="2" height="1%" fill="white" opacity="0.08" />
  <rect y="5%" width="2" height="1%" fill="white" opacity="0.10" />
  <rect y="6%" width="2" height="1%" fill="white" opacity="0.12" />
  <rect y="7%" width="2" height="1%" fill="white" opacity="0.14" />
  <rect y="8%" width="2" height="1%" fill="white" opacity="0.16" />
  <rect y="9%" width="2" height="1%" fill="white" opacity="0.18" />
  <rect y="10%" width="2" height="1%" fill="white" opacity="0.20" />
  <rect y="11%" width="2" height="1%" fill="white" opacity="0.22" />
  <rect y="12%" width="2" height="1%" fill="white" opacity="0.24" />
  <rect y="13%" width="2" height="1%" fill="white" opacity="0.26" />
  <rect y="14%" width="2" height="1%" fill="white" opacity="0.28" />
  <rect y="15%" width="2" height="1%" fill="white" opacity="0.30" />
  <rect y="16%" width="2" height="1%" fill="white" opacity="0.32" />
  <rect y="17%" width="2" height="1%" fill="white" opacity="0.34" />
  <rect y="18%" width="2" height="1%" fill="white" opacity="0.36" />
  <rect y="19%" width="2" height="1%" fill="white" opacity="0.38" />
  <rect y="20%" width="2" height="1%" fill="white" opacity="0.40" />
  <rect y="21%" width="2" height="1%" fill="white" opacity="0.42" />
  <rect y="22%" width="2" height="1%" fill="white" opacity="0.44" />
  <rect y="23%" width="2" height="1%" fill="white" opacity="0.46" />
  <rect y="24%" width="2" height="1%" fill="white" opacity="0.48" />
  <rect y="25%" width="2" height="50%" fill="white" opacity="0.5" />
  <rect y="75%" width="2" height="1%" fill="white" opacity="0.48" />
  <rect y="76%" width="2" height="1%" fill="white" opacity="0.46" />
  <rect y="77%" width="2" height="1%" fill="white" opacity="0.44" />
  <rect y="78%" width="2" height="1%" fill="white" opacity="0.42" />
  <rect y="79%" width="2" height="1%" fill="white" opacity="0.40" />
  <rect y="80%" width="2" height="1%" fill="white" opacity="0.38" />
  <rect y="81%" width="2" height="1%" fill="white" opacity="0.36" />
  <rect y="82%" width="2" height="1%" fill="white" opacity="0.34" />
  <rect y="83%" width="2" height="1%" fill="white" opacity="0.32" />
  <rect y="84%" width="2" height="1%" fill="white" opacity="0.30" />
  <rect y="85%" width="2" height="1%" fill="white" opacity="0.28" />
  <rect y="86%" width="2" height="1%" fill="white" opacity="0.26" />
  <rect y="87%" width="2" height="1%" fill="white" opacity="0.24" />
  <rect y="88%" width="2" height="1%" fill="white" opacity="0.22" />
  <rect y="89%" width="2" height="1%" fill="white" opacity="0.20" />
  <rect y="90%" width="2" height="1%" fill="white" opacity="0.18" />
  <rect y="91%" width="2" height="1%" fill="white" opacity="0.16" />
  <rect y="92%" width="2" height="1%" fill="white" opacity="0.14" />
  <rect y="93%" width="2" height="1%" fill="white" opacity="0.12" />
  <rect y="94%" width="2" height="1%" fill="white" opacity="0.10" />
  <rect y="95%" width="2" height="1%" fill="white" opacity="0.08" />
  <rect y="96%" width="2" height="1%" fill="white" opacity="0.06" />
  <rect y="97%" width="2" height="1%" fill="white" opacity="0.04" />
  <rect y="98%" width="2" height="1%" fill="white" opacity="0.02" />
  <rect y="99%" width="2" height="1%" fill="white" opacity="0" />
</svg>