<svg xmlns="http://www.w3.org/2000/svg" width="10" height="10" viewBox="0 0 10 10" fill="none">
  <path d="M8.38086 0C9.27482 0 10 0.725183 10 1.61914V8.38086C10 9.27482 9.27482 10 8.38086 10H1.61914C0.725183 10 0 9.27482 0 8.38086V1.61914C0 0.725183 0.725183 0 1.61914 0H8.38086ZM5.00781 1.31055C3.36834 1.31055 1.7666 2.24885 1.7666 4.99707C1.76661 7.76101 3.42062 8.68945 5.0127 8.68945C6.86672 8.6893 7.89062 7.60094 7.89062 6.34863C7.89053 5.75968 7.61018 5.24604 7.10059 4.90234C6.97413 4.81714 6.83443 4.74194 6.68359 4.67871C6.64824 4.15527 6.49268 3.74625 6.2207 3.45996C5.94872 3.17371 5.56779 3.02246 5.11914 3.02246C4.48489 3.02251 4.02561 3.21616 3.67773 3.71484C3.67773 3.71484 4.09068 4.00236 4.21484 4.08496C4.39918 3.87177 4.54495 3.68454 5.11914 3.68457C5.74564 3.68457 5.99409 4.18758 5.99414 4.48145C5.82456 4.44686 5.49841 4.42871 5.22852 4.42871C4.50784 4.42882 3.5957 4.77818 3.5957 5.74219C3.59592 6.41716 4.2373 6.93251 4.98145 6.93262C6.25905 6.93262 6.55064 5.97521 6.65918 5.40625C6.69112 5.40843 7.24304 5.72603 7.24316 6.38672C7.24316 7.36105 6.29052 8.02728 5.0127 8.02734C3.45936 8.02734 2.42188 7.01177 2.42188 5.10156C2.42199 2.97141 3.35048 1.96973 4.99121 1.96973C5.98369 1.96981 7.06576 2.22146 7.58203 3.7959L8.20898 3.63281C7.54117 1.42261 5.7649 1.31055 5.00781 1.31055ZM5.31738 5.08691C5.60454 5.08693 5.78189 5.10771 6.01953 5.16113C5.9437 6.14853 5.46156 6.2793 4.99219 6.2793C4.73604 6.27915 4.25684 6.1448 4.25684 5.74023C4.25688 5.48825 4.37872 5.08691 5.31738 5.08691Z" fill="white"/>
</svg>