<svg width="24" height="24" viewBox="0 0 24 24" fill="none" xmlns="http://www.w3.org/2000/svg">
<rect x="0.15" y="0.15" width="23.7" height="23.7" rx="11.85" stroke="white" stroke-opacity="0.6" stroke-width="0.3"/>
<path d="M15.3809 7C16.2748 7 17 7.72518 17 8.61914V15.3809C17 16.2748 16.2748 17 15.3809 17H8.61914C7.72518 17 7 16.2748 7 15.3809V8.61914C7 7.72518 7.72518 7 8.61914 7H15.3809ZM12.0078 8.31055C10.3683 8.31055 8.7666 9.24885 8.7666 11.9971C8.76661 14.761 10.4206 15.6895 12.0127 15.6895C13.8667 15.6893 14.8906 14.6009 14.8906 13.3486C14.8905 12.7597 14.6102 12.246 14.1006 11.9023C13.9741 11.8171 13.8344 11.7419 13.6836 11.6787C13.6482 11.1553 13.4927 10.7463 13.2207 10.46C12.9487 10.1737 12.5678 10.0225 12.1191 10.0225C11.4849 10.0225 11.0256 10.2162 10.6777 10.7148C10.6777 10.7148 11.0907 11.0024 11.2148 11.085C11.3992 10.8718 11.545 10.6845 12.1191 10.6846C12.7456 10.6846 12.9941 11.1876 12.9941 11.4814C12.8246 11.4469 12.4984 11.4287 12.2285 11.4287C11.5078 11.4288 10.5957 11.7782 10.5957 12.7422C10.5959 13.4172 11.2373 13.9325 11.9814 13.9326C13.259 13.9326 13.5506 12.9752 13.6592 12.4062C13.6911 12.4084 14.243 12.726 14.2432 13.3867C14.2432 14.361 13.2905 15.0273 12.0127 15.0273C10.4594 15.0273 9.42188 14.0118 9.42188 12.1016C9.42199 9.97141 10.3505 8.96973 11.9912 8.96973C12.9837 8.96981 14.0658 9.22146 14.582 10.7959L15.209 10.6328C14.5412 8.42261 12.7649 8.31055 12.0078 8.31055ZM12.3174 12.0869C12.6045 12.0869 12.7819 12.1077 13.0195 12.1611C12.9437 13.1485 12.4616 13.2793 11.9922 13.2793C11.736 13.2791 11.2568 13.1448 11.2568 12.7402C11.2569 12.4882 11.3787 12.0869 12.3174 12.0869Z" fill="white"/>
</svg>
